<svg width="7" height="14" viewBox="0 0 7 14" fill="none" xmlns="http://www.w3.org/2000/svg">
    <path d="M0 13.1265C0.000206955 12.8943 0.0937612 12.6716 0.260095 12.5075L4.7952 8.02707C4.93247 7.89149 5.04136 7.73053 5.11565 7.55337C5.18994 7.37621 5.22818 7.18632 5.22818 6.99456C5.22818 6.8028 5.18994 6.61292 5.11565 6.43576C5.04136 6.2586 4.93247 6.09764 4.7952 5.96206L0.266006 1.48456C0.104489 1.31934 0.0151158 1.09807 0.017136 0.868383C0.0191562 0.6387 0.112408 0.418989 0.276807 0.256573C0.441206 0.0941564 0.663598 0.002029 0.896084 3.31149e-05C1.12857 -0.00196277 1.35255 0.0863326 1.51978 0.245902L6.04897 4.7199C6.65797 5.32273 7 6.13965 7 6.99135C7 7.84306 6.65797 8.65997 6.04897 9.2628L1.51387 13.7432C1.39004 13.8656 1.23228 13.9491 1.0605 13.983C0.888726 14.0169 0.710625 13.9998 0.548675 13.9339C0.386725 13.8679 0.248184 13.756 0.150535 13.6123C0.0528854 13.4686 0.000503813 13.2996 0 13.1265Z"
          fill="#000000"/>
</svg>