<svg width="24" height="25" viewBox="0 0 24 25" fill="none" xmlns="http://www.w3.org/2000/svg">
    <path fill-rule="evenodd" clip-rule="evenodd"
          d="M11.999 0.308228C5.37202 0.308228 -0.000976562 5.90406 -0.000976562 12.8082C-0.000976562 18.3311 3.43702 23.0166 8.20502 24.6697C8.80503 24.7853 9.02502 24.3989 9.02502 24.0686C9.02502 23.7707 9.01402 22.7864 9.00902 21.7416C5.67102 22.4978 4.96602 20.2666 4.96602 20.2666C4.42002 18.8218 3.63402 18.4374 3.63402 18.4374C2.54502 17.6614 3.71602 17.678 3.71602 17.678C4.92102 17.7666 5.55502 18.9666 5.55502 18.9666C6.62502 20.877 8.36202 20.3249 9.04702 20.0051C9.15502 19.1968 9.46603 18.6457 9.80902 18.3332C7.14402 18.0176 4.34202 16.9457 4.34202 12.1561C4.34202 10.7916 4.81102 9.67594 5.57902 8.80094C5.45402 8.48531 5.04302 7.21448 5.69502 5.4926C5.69502 5.4926 6.70302 5.15719 8.99602 6.77385C9.95302 6.49677 10.979 6.35823 11.999 6.35302C13.019 6.35823 14.046 6.49677 15.005 6.77385C17.295 5.15614 18.302 5.4926 18.302 5.4926C18.955 7.21448 18.544 8.48531 18.42 8.80094C19.189 9.67594 19.655 10.7916 19.655 12.1561C19.655 16.9572 16.848 18.0145 14.176 18.3239C14.606 18.7114 14.99 19.4728 14.99 20.6384C14.99 22.3114 14.976 23.6572 14.976 24.0686C14.976 24.4009 15.192 24.7916 15.8 24.6686C20.566 23.0134 24 18.3301 24 12.8093C23.999 5.9051 18.626 0.308228 11.999 0.308228Z"
          fill="#000000"/>
    <path d="M4.54406 18.2561C4.51806 18.3186 4.42406 18.3374 4.33806 18.2947C4.25106 18.254 4.20206 18.1686 4.23006 18.1072C4.25606 18.0436 4.35006 18.0259 4.43706 18.0686C4.52406 18.1082 4.57406 18.1936 4.54406 18.2561Z"
          fill="#000000"/>
    <path d="M5.02987 18.8207C4.97287 18.8759 4.86087 18.8499 4.78487 18.7634C4.70587 18.6759 4.69187 18.5593 4.74987 18.5041C4.80887 18.4489 4.91687 18.4749 4.99587 18.5624C5.07487 18.6489 5.08987 18.7645 5.02987 18.8207Z"
          fill="#000000"/>
    <path d="M5.50294 19.5406C5.42894 19.5937 5.30894 19.5437 5.23494 19.4333C5.16094 19.3218 5.16094 19.1885 5.23694 19.1354C5.31094 19.0822 5.42994 19.1301 5.50494 19.2406C5.57794 19.3531 5.57794 19.4864 5.50294 19.5406Z"
          fill="#000000"/>
    <path d="M6.15098 20.2363C6.08498 20.3124 5.94498 20.2915 5.84298 20.1884C5.73798 20.0874 5.70898 19.9447 5.77498 19.8686C5.84198 19.7926 5.98298 19.8145 6.08598 19.9165C6.18998 20.0176 6.22098 20.1613 6.15098 20.2363Z"
          fill="#000000"/>
    <path d="M7.0461 20.6395C7.0171 20.7374 6.8821 20.7822 6.7461 20.7405C6.6101 20.6978 6.5211 20.5832 6.5491 20.4843C6.5771 20.3853 6.7131 20.3395 6.8501 20.3843C6.9851 20.426 7.0741 20.5405 7.0461 20.6395Z"
          fill="#000000"/>
    <path d="M8.02821 20.7145C8.03121 20.8176 7.91621 20.903 7.77321 20.9051C7.63021 20.9082 7.51321 20.8249 7.51221 20.7239C7.51221 20.6197 7.62521 20.5353 7.76821 20.5322C7.91121 20.5291 8.02821 20.6124 8.02821 20.7145Z"
          fill="#000000"/>
    <path d="M8.94204 20.553C8.95904 20.653 8.86004 20.7571 8.71804 20.7842C8.57904 20.8113 8.45004 20.7488 8.43204 20.6488C8.41504 20.5457 8.51604 20.4425 8.65504 20.4155C8.79604 20.3894 8.92404 20.4498 8.94204 20.553Z"
          fill="#000000"/>
</svg>
